<?xml version="1.0" encoding="utf-8"?>
<!-- Generator: Adobe Illustrator 15.1.0, SVG Export Plug-In . SVG Version: 6.00 Build 0)  -->
<!DOCTYPE svg PUBLIC "-//W3C//DTD SVG 1.1//EN" "http://www.w3.org/Graphics/SVG/1.1/DTD/svg11.dtd">
<svg version="1.1" id="Layer_1" xmlns="http://www.w3.org/2000/svg" xmlns:xlink="http://www.w3.org/1999/xlink" x="0px" y="0px"
	 width="200px" height="60px" viewBox="0 0 200 60" enable-background="new 0 0 200 60" xml:space="preserve">
<g>
	<g>
		<path fill="#FFFFFF" d="M24.158,6.992H10.363v3.21h12.717v4.5H10.363v3.27h14.183v4.5H3.122V2.493h21.036V6.992z"/>
		<path fill="#FFFFFF" d="M41.278,22.472c-0.27-0.6-0.299-0.75-0.419-1.41l-0.599,0.27c-1.915,0.96-2.992,1.26-4.817,1.53
			c-0.718,0.09-1.437,0.15-2.155,0.15c-3.89,0-6.403-1.89-6.403-4.92c0-2.34,1.646-3.99,4.488-4.5c1.466-0.24,4.04-0.51,5.446-0.54
			l4.04-0.12v-0.06c0-1.62-0.718-2.07-3.352-2.07c-2.214,0-3.142,0.36-3.591,1.41h-6.374c0.359-2.37,1.167-3.54,2.993-4.26
			c1.765-0.72,3.89-1.02,7.062-1.02c4.339,0,7.002,0.57,8.378,1.8c1.017,0.9,1.346,1.95,1.346,4.14v6.96v0.9
			c0,0.78,0.18,1.17,0.778,1.74H41.278z M38.046,15.722c-2.783,0.03-4.279,0.63-4.279,1.709c0,0.96,0.838,1.47,2.424,1.47
			c2.783,0,4.578-1.23,4.668-3.24L38.046,15.722z"/>
		<path fill="#FFFFFF" d="M62.558,12.242c-0.418-1.26-1.256-1.68-3.171-1.68c-1.556,0-2.514,0.45-2.514,1.23
			c0,0.63,0.748,0.99,2.514,1.2l4.069,0.51c2.035,0.24,3.321,0.6,4.219,1.14c0.897,0.54,1.496,1.65,1.496,2.73
			c0,3.42-3.8,5.64-9.575,5.64c-4.458,0-7.78-0.96-9.007-2.61c-0.509-0.66-0.658-1.14-0.808-2.37l6.673-0.39
			c0.239,1.2,1.347,1.77,3.292,1.77c1.676,0,2.753-0.51,2.753-1.35c0-0.57-0.539-0.87-1.975-1.11l-3.292-0.51
			c-5.146-0.78-6.822-1.89-6.822-4.47c0-3.3,3.202-5.04,9.276-5.04c5.446,0,8.558,1.62,9.396,4.89L62.558,12.242z"/>
		<path fill="#FFFFFF" d="M81.263,12.212h-2.274v4.11c-0.03,1.47,0.269,1.89,1.406,1.89h0.868v4.26h-4.488
			c-3.471,0-4.638-0.87-4.638-3.48c0-0.09,0-0.21,0-0.33l0.209-6.45h-2.154v-3.99h2.244l0.209-5.25h6.313v5.25h2.304V12.212z"/>
		<path fill="#FFFFFF" d="M110.92,9.362c-0.688-1.98-2.454-3.03-5.027-3.03c-3.681,0-6.074,2.43-6.074,6.149
			c0,3.78,2.364,6.15,6.134,6.15c2.573,0,4.219-1.02,5.297-3.27l6.553,0.93c-0.748,2.19-1.287,3.06-2.664,4.14
			c-2.215,1.8-5.326,2.67-9.396,2.67c-8.229,0-13.286-4.02-13.286-10.589c0-3.33,1.376-6.24,3.771-8.07
			c2.394-1.8,5.326-2.61,9.485-2.61c6.703,0,10.623,2.13,11.878,6.48L110.92,9.362z"/>
		<path fill="#FFFFFF" d="M130.525,23.012c-6.912,0-11.162-3.03-11.131-8.04c0-4.98,4.219-8.04,11.131-8.04
			c6.941,0,11.16,3.06,11.16,8.07C141.686,19.982,137.467,23.012,130.525,23.012z M130.525,11.042c-2.635,0-4.279,1.53-4.279,3.93
			c0,2.43,1.645,3.959,4.279,3.959c2.633,0,4.309-1.53,4.309-3.959C134.834,12.572,133.158,11.042,130.525,11.042z"/>
		<path fill="#FFFFFF" d="M158.027,22.472c-0.268-0.6-0.299-0.75-0.418-1.41l-0.598,0.27c-1.916,0.96-2.994,1.26-4.818,1.53
			c-0.719,0.09-1.436,0.15-2.154,0.15c-3.891,0-6.404-1.89-6.404-4.92c0-2.34,1.646-3.99,4.488-4.5
			c1.467-0.24,4.041-0.51,5.447-0.54l4.039-0.12v-0.06c0-1.62-0.719-2.07-3.352-2.07c-2.215,0-3.143,0.36-3.59,1.41h-6.375
			c0.359-2.37,1.168-3.54,2.992-4.26c1.766-0.72,3.891-1.02,7.062-1.02c4.338,0,7.002,0.57,8.379,1.8
			c1.018,0.9,1.346,1.95,1.346,4.14v6.96v0.9c0,0.78,0.18,1.17,0.777,1.74H158.027z M154.797,15.722
			c-2.783,0.03-4.279,0.63-4.279,1.709c0,0.96,0.838,1.47,2.424,1.47c2.783,0,4.578-1.23,4.668-3.24L154.797,15.722z"/>
		<path fill="#FFFFFF" d="M179.309,12.242c-0.42-1.26-1.258-1.68-3.172-1.68c-1.557,0-2.514,0.45-2.514,1.23
			c0,0.63,0.748,0.99,2.514,1.2l4.068,0.51c2.035,0.24,3.322,0.6,4.219,1.14c0.898,0.54,1.496,1.65,1.496,2.73
			c0,3.42-3.799,5.64-9.574,5.64c-4.459,0-7.779-0.96-9.008-2.61c-0.508-0.66-0.658-1.14-0.807-2.37l6.672-0.39
			c0.24,1.2,1.348,1.77,3.293,1.77c1.674,0,2.752-0.51,2.752-1.35c0-0.57-0.539-0.87-1.975-1.11l-3.291-0.51
			c-5.146-0.78-6.822-1.89-6.822-4.47c0-3.3,3.201-5.04,9.275-5.04c5.445,0,8.557,1.62,9.395,4.89L179.309,12.242z"/>
		<path fill="#FFFFFF" d="M198.014,12.212h-2.275v4.11c-0.029,1.47,0.27,1.89,1.406,1.89h0.869v4.26h-4.49
			c-3.471,0-4.637-0.87-4.637-3.48c0-0.09,0-0.21,0-0.33l0.209-6.45h-2.154v-3.99h2.244l0.209-5.25h6.314v5.25h2.305V12.212z"/>
		<path fill="#FFFFFF" d="M20.917,38.234c-0.606-1.786-1.706-2.355-4.321-2.355c-2.691,0-4.207,0.722-4.207,2.052
			c0,1.102,0.758,1.558,3.411,2.128l7.125,1.481c2.578,0.532,4.321,1.254,5.458,2.279c1.175,1.026,1.857,2.735,1.857,4.56
			c0,2.926-1.668,5.661-4.283,6.953c-2.577,1.254-6.178,1.938-10.082,1.938c-3.601,0-6.898-0.607-9.059-1.634
			c-1.137-0.532-2.123-1.405-2.918-2.546c-0.834-1.291-1.099-2.014-1.403-3.951l9.021-0.304c0.417,1.899,2.274,2.926,5.269,2.926
			c2.918,0,4.662-1.026,4.662-2.698c0-1.102-0.985-1.823-2.918-2.165l-7.012-1.254c-5.306-0.988-7.884-3.306-7.884-7.105
			c0-5.167,4.814-8.206,13.001-8.206s12.167,2.241,13.039,7.257L20.917,38.234z"/>
		<path fill="#FFFFFF" d="M60.607,36.866H43.134v4.065h16.108v5.699H43.134v4.142H61.1v5.699H33.961V31.167h26.646V36.866z"/>
		<path fill="#FFFFFF" d="M74.333,56.472h-9.134V31.167h9.134V56.472z"/>
		<path fill="#FFFFFF" d="M96.206,38.234c-0.606-1.786-1.706-2.355-4.321-2.355c-2.691,0-4.207,0.722-4.207,2.052
			c0,1.102,0.758,1.558,3.411,2.128l7.125,1.481c2.578,0.532,4.321,1.254,5.458,2.279c1.175,1.026,1.857,2.735,1.857,4.56
			c0,2.926-1.668,5.661-4.283,6.953c-2.577,1.254-6.178,1.938-10.082,1.938c-3.601,0-6.898-0.607-9.059-1.634
			c-1.137-0.532-2.123-1.405-2.918-2.546c-0.834-1.291-1.099-2.014-1.403-3.951l9.021-0.304c0.417,1.899,2.274,2.926,5.269,2.926
			c2.918,0,4.662-1.026,4.662-2.698c0-1.102-0.985-1.823-2.918-2.165l-7.012-1.254c-5.306-0.988-7.884-3.306-7.884-7.105
			c0-5.167,4.814-8.206,13.001-8.206s12.167,2.241,13.039,7.257L96.206,38.234z"/>
		<path fill="#FFFFFF" d="M147.684,56.472h-8.756V40.248l-7.088,16.224h-6.672l-7.088-16.224v16.224h-8.756V31.167h12.168
			l7.088,16.68l7.125-16.68h11.979V56.472z"/>
		<path fill="#FFFFFF" d="M161.865,56.472h-9.135V31.167h9.135V56.472z"/>
		<path fill="#FFFFFF" d="M189.045,39.868c-0.871-2.508-3.107-3.838-6.367-3.838c-4.662,0-7.695,3.078-7.695,7.789
			c0,4.787,2.994,7.789,7.771,7.789c3.258,0,5.344-1.292,6.707-4.142l8.301,1.178c-0.947,2.773-1.629,3.876-3.373,5.243
			c-2.805,2.28-6.746,3.382-11.9,3.382c-10.424,0-16.83-5.091-16.83-13.412c0-4.217,1.744-7.902,4.775-10.221
			c3.033-2.279,6.748-3.305,12.016-3.305c8.49,0,13.455,2.697,15.049,8.206L189.045,39.868z"/>
	</g>
	<rect x="-0.5" fill="none" width="200" height="60"/>
</g>
</svg>
