<svg xmlns="http://www.w3.org/2000/svg" width="355.994" height="88.734" viewBox="0 0 355.994 88.734"><g fill="#5A5A5A"><path d="M130.451 41.133c-.82 2.883-1.477 5.572-1.969 8.068s-.738 4.658-.738 6.486c0 1.594.334 2.842 1.002 3.744s1.775 1.354 3.322 1.354c.586 0 1.289-.17 2.109-.51s1.758-.873 2.812-1.6 2.232-1.664 3.533-2.812 2.748-2.52 4.342-4.113c.07.141.211.469.422.984.188.445.451 1.119.791 2.021s.814 2.139 1.424 3.709c-1.758 1.852-3.521 3.48-5.291 4.887s-3.492 2.584-5.168 3.533-3.281 1.664-4.816 2.145c-1.535.479-2.947.721-4.236.721-1.477 0-2.848-.276-4.113-.826-1.266-.551-2.361-1.354-3.287-2.408s-1.658-2.35-2.197-3.885-.809-3.287-.809-5.256c0-.68.07-1.535.211-2.566s.346-2.203.615-3.516.598-2.748.984-4.307.814-3.205 1.283-4.939c-3.141.328-6.152.633-9.035.914s-5.754.551-8.613.809c-.656 1.969-1.307 3.896-1.951 5.783s-1.266 3.656-1.863 5.309-1.148 3.164-1.652 4.535-.932 2.537-1.283 3.498c-1.148 2.484-2.268 4.242-3.357 5.273s-2.068 1.547-2.936 1.547c-.562 0-1.113-.094-1.652-.281-.539-.188-1.02-.457-1.441-.809s-.756-.773-1.002-1.266-.369-1.043-.369-1.652c0-.375.047-.738.141-1.09.984-3.586 2.057-7.049 3.217-10.389s2.338-6.592 3.533-9.756c-1.289 0-2.525-.1-3.709-.299s-2.279-.545-3.287-1.037-1.904-1.172-2.689-2.039-1.436-1.969-1.951-3.305c-.094-.422-.17-.797-.229-1.125s-.088-.656-.088-.984c0-1.031.363-1.547 1.09-1.547.445 0 .938.24 1.477.721s1.23 1.248 2.074 2.303c1.102-.047 2.203-.082 3.305-.105s2.285-.035 3.551-.035h3.375c.844-2.18 1.646-4.283 2.408-6.311s1.471-4.014 2.127-5.959c.398-1.242.715-2.484.949-3.727s.352-2.426.352-3.551c0-.914-.082-1.758-.246-2.531s-.434-1.43-.809-1.969-.855-.961-1.441-1.266-1.312-.457-2.18-.457c-.703 0-1.518.117-2.443.352s-1.951.615-3.076 1.143-2.35 1.219-3.674 2.074-2.763 1.916-4.31 3.182c-.539.445-1.037.762-1.494.949s-.873.281-1.248.281c-.188 0-.328-.311-.422-.932s-.141-1.389-.141-2.303c0-1.219.287-2.379.861-3.48s1.342-2.115 2.303-3.041 2.068-1.77 3.322-2.531 2.543-1.406 3.867-1.934 2.643-.932 3.955-1.213 2.52-.422 3.621-.422c1.641 0 3.211.223 4.711.668s2.818 1.16 3.955 2.145 2.039 2.262 2.707 3.832 1.002 3.48 1.002 5.73c0 1.055-.123 2.344-.369 3.867s-.58 3.193-1.002 5.01-.92 3.75-1.494 5.801-1.189 4.143-1.846 6.275c2.414-.164 5.133-.328 8.156-.492s6.059-.328 9.105-.492c1.195-3.914 2.514-7.963 3.955-12.146s2.971-8.291 4.588-12.322c.539-1.336 1.248-2.402 2.127-3.199s1.916-1.195 3.111-1.195c.492 0 .967.07 1.424.211s.861.357 1.213.65.627.668.826 1.125.299.99.299 1.6c0 .539-.035 1.166-.105 1.881s-.258 1.482-.562 2.303c-.539 1.453-1.113 3.006-1.723 4.658s-1.225 3.352-1.846 5.098-1.242 3.533-1.863 5.361-1.213 3.645-1.775 5.449c1.477-.094 2.766-.182 3.867-.264s1.934-.146 2.496-.193c.258-.023.498-.041.721-.053s.428-.018.615-.018c.703 0 1.271.07 1.705.211s.773.34 1.02.598.416.562.51.914.141.75.141 1.195c0 .492-.105.902-.316 1.23s-.475.592-.791.791-.65.34-1.002.422-.68.135-.984.158c-.656.07-1.125.123-1.406.158s-.48.059-.598.07-.193.023-.229.035-.123.023-.264.035-.387.029-.738.053-.891.07-1.617.141c-.844.094-1.67.176-2.479.246s-1.611.141-2.408.212zM180.568 58.886c-.539.75-1.26 1.629-2.162 2.637s-1.916 1.969-3.041 2.883-2.332 1.688-3.621 2.32-2.578.949-3.867.949c-1.547 0-2.836-.498-3.867-1.494s-1.922-2.443-2.672-4.342c-.562.656-1.254 1.324-2.074 2.004s-1.717 1.295-2.689 1.846-1.986 1.002-3.041 1.354-2.109.527-3.164.527c-1.125 0-2.221-.229-3.287-.686s-2.01-1.113-2.83-1.969-1.477-1.898-1.969-3.129-.738-2.619-.738-4.166c0-1.758.246-3.562.738-5.414s1.172-3.662 2.039-5.432 1.893-3.439 3.076-5.01 2.479-2.941 3.885-4.113 2.889-2.104 4.447-2.795 3.146-1.037 4.764-1.037c.539 0 .961.105 1.266.316s.557.451.756.721.393.533.58.791.422.445.703.562.568.193.861.229.592.053.896.053c.258 0 .521-.006.791-.018s.533-.018.791-.018c.352 0 .68.035.984.105s.574.223.809.457.416.562.545.984.193.996.193 1.723c0 1.125-.117 2.373-.352 3.744s-.492 2.777-.773 4.219-.539 2.883-.773 4.324-.352 2.807-.352 4.096c0 1.102.1 1.963.299 2.584s.627.932 1.283.932c.492 0 1.008-.123 1.547-.369s1.084-.568 1.635-.967 1.102-.85 1.652-1.354 1.072-1.025 1.564-1.564c1.148-1.266 2.309-2.695 3.48-4.289l1.688 7.806zm-30.023-2.777c0 .586.041 1.154.123 1.705s.229 1.043.439 1.477.492.785.844 1.055.797.404 1.336.404c.867 0 1.652-.375 2.355-1.125s1.312-1.652 1.828-2.707.932-2.145 1.248-3.27.521-2.062.615-2.812l2.145-10.336c-.961 0-1.898.24-2.812.721s-1.775 1.131-2.584 1.951-1.553 1.758-2.232 2.812-1.266 2.162-1.758 3.322-.873 2.326-1.143 3.498-.404 2.274-.404 3.305z"/><path d="M174.26 60.152c0-1.547.094-3.334.281-5.361s.422-4.09.703-6.188.598-4.119.949-6.064.691-3.609 1.02-4.992c.258-1.078.756-1.98 1.494-2.707s1.74-1.09 3.006-1.09c1.265 0 2.144.387 2.636 1.16s.738 1.805.738 3.094c0 .352-.035.826-.105 1.424s-.158 1.254-.264 1.969-.217 1.453-.334 2.215-.229 1.465-.334 2.109-.193 1.207-.264 1.688-.105.803-.105.967h.703c.141-.258.363-.674.668-1.248s.656-1.236 1.055-1.986.826-1.541 1.283-2.373.885-1.629 1.283-2.391.762-1.436 1.09-2.021.574-1.02.738-1.301c.75-1.266 1.605-2.133 2.566-2.602s2.027-.703 3.199-.703 2.104.492 2.795 1.477 1.037 2.344 1.037 4.078c0 .258-.053.691-.158 1.301s-.24 1.336-.404 2.18-.346 1.77-.545 2.777-.381 2.039-.545 3.094-.299 2.098-.404 3.129-.158 1.98-.158 2.848c0 1.453.182 2.648.545 3.586s.932 1.406 1.705 1.406c.352 0 .756-.105 1.213-.316s.949-.486 1.477-.826 1.066-.732 1.617-1.178 1.096-.902 1.635-1.371c1.242-1.102 2.543-2.344 3.902-3.727l.598 7.875-1.758 1.336c-.961.727-1.939 1.453-2.936 2.18s-2.033 1.377-3.111 1.951-2.203 1.043-3.375 1.406-2.402.545-3.691.545-2.373-.932-3.252-2.795-1.318-4.588-1.318-8.174c0-1.406.094-2.924.281-4.553s.422-3.381.703-5.256h-.562l-9.211 18.281c-.469.961-.996 1.617-1.582 1.969s-1.266.527-2.039.527c-.961 0-1.734-.205-2.32-.615s-1.037-.961-1.354-1.652-.527-1.477-.633-2.355-.158-1.789-.158-2.727z"/><path d="M244.345 60.609c-1.664 1.289-3.305 2.438-4.922 3.445-.68.422-1.395.838-2.145 1.248s-1.488.773-2.215 1.09-1.436.574-2.127.773-1.33.299-1.916.299c-.328 0-.814-.07-1.459-.211s-1.348-.428-2.109-.861-1.523-1.061-2.285-1.881-1.424-1.91-1.986-3.27c-.867.844-1.787 1.646-2.76 2.408s-1.98 1.424-3.023 1.986-2.098 1.014-3.164 1.354-2.139.51-3.217.51c-1.523 0-2.842-.328-3.955-.984s-2.039-1.529-2.777-2.619-1.289-2.326-1.652-3.709-.545-2.812-.545-4.289c0-1.5.193-3.018.58-4.553s.949-3.023 1.688-4.465 1.635-2.801 2.689-4.078 2.25-2.414 3.586-3.41 2.789-1.822 4.359-2.479 3.246-1.066 5.027-1.23c.07-3 .34-5.965.809-8.895s1.09-5.719 1.863-8.367 1.682-5.098 2.725-7.348 2.186-4.195 3.428-5.836 2.566-2.924 3.973-3.85S235.673 0 237.173 0c1.102 0 2.039.287 2.812.861s1.4 1.336 1.881 2.285.826 2.051 1.037 3.305.317 2.549.317 3.885c0 .82-.035 1.664-.105 2.531-.305 3.305-.867 6.428-1.688 9.369s-1.781 5.807-2.883 8.596-2.297 5.555-3.586 8.297-2.543 5.59-3.762 8.543c-.117.328-.234.727-.352 1.195s-.229.979-.334 1.529-.193 1.113-.264 1.688-.105 1.131-.105 1.67c0 .68.041 1.324.123 1.934s.217 1.154.404 1.635.439.861.756 1.143.709.422 1.178.422c.445 0 .932-.088 1.459-.264s1.084-.416 1.67-.721 1.178-.65 1.775-1.037 1.178-.779 1.74-1.178c1.289-.938 2.637-2.004 4.043-3.199l1.056 8.12zm-24.187-19.687c-1.547.75-2.924 1.74-4.131 2.971s-2.215 2.561-3.023 3.99-1.424 2.871-1.846 4.324-.633 2.766-.633 3.938c0 .469.053.938.158 1.406s.299.891.58 1.266.68.68 1.195.914 1.184.352 2.004.352c.422 0 .838-.105 1.248-.316s.803-.486 1.178-.826.732-.727 1.072-1.16.65-.885.932-1.354c.656-1.078 1.254-2.297 1.793-3.656-.07-.328-.129-.85-.176-1.564s-.082-1.512-.105-2.391-.047-1.787-.07-2.725-.041-1.793-.053-2.566-.029-1.406-.053-1.898-.047-.729-.07-.705zm16.523-25.489c.141-1.641.211-2.941.211-3.902 0-1.266-.111-2.145-.334-2.637s-.545-.738-.967-.738c-.75 0-1.43.475-2.039 1.424s-1.148 2.162-1.617 3.639-.879 3.105-1.23 4.887-.645 3.504-.879 5.168-.422 3.164-.562 4.5-.234 2.285-.281 2.848c-.094 1.148-.17 2.256-.229 3.322s-.1 2.039-.123 2.918-.035 1.646-.035 2.303V41.029c1.336-3.047 2.566-6.082 3.691-9.105.469-1.289.943-2.643 1.424-4.061s.92-2.842 1.318-4.271.744-2.836 1.037-4.219.498-2.697.615-3.94zM271.603 74.25c-3.492 0-6.639-.716-9.439-2.145-2.801-1.43-5.186-3.428-7.154-5.994s-3.48-5.625-4.535-9.176-1.582-7.447-1.582-11.689c0-2.25.164-4.559.492-6.926s.826-4.729 1.494-7.084 1.5-4.664 2.496-6.926 2.156-4.4 3.48-6.416 2.807-3.873 4.447-5.572 3.451-3.164 5.432-4.395 4.113-2.191 6.398-2.883 4.74-1.037 7.365-1.037c3.516 0 6.662.633 9.439 1.898s5.121 3.035 7.031 5.309 3.375 4.986 4.395 8.139 1.529 6.627 1.529 10.424c0 3.141-.311 6.416-.932 9.826s-1.529 6.762-2.725 10.055-2.684 6.428-4.465 9.404-3.832 5.59-6.152 7.84-4.904 4.037-7.752 5.361c-2.846 1.324-5.934 1.987-9.262 1.987zm.844-8.578c1.875 0 3.621-.363 5.238-1.09s3.1-1.723 4.447-2.988 2.578-2.748 3.691-4.447 2.104-3.521 2.971-5.467 1.623-3.961 2.268-6.047 1.178-4.148 1.6-6.188.732-4.002.932-5.889.299-3.604.299-5.15c0-2.25-.246-4.365-.738-6.346s-1.236-3.703-2.232-5.168-2.25-2.619-3.762-3.463-3.275-1.266-5.291-1.266c-2.156 0-4.242.521-6.258 1.564s-3.914 2.449-5.695 4.219-3.41 3.82-4.887 6.152-2.742 4.787-3.797 7.365-1.875 5.203-2.461 7.875-.879 5.227-.879 7.664c0 2.648.334 5.115 1.002 7.4s1.629 4.26 2.883 5.924 2.777 2.971 4.57 3.92 3.825 1.426 6.099 1.426zM300.603 68.836c0-.118.029-.832.088-2.145s.17-3.059.334-5.238.387-4.693.668-7.541.65-5.859 1.107-9.035.996-6.434 1.617-9.773 1.359-6.592 2.215-9.756 1.834-6.146 2.936-8.947 2.338-5.25 3.709-7.348 2.9-3.756 4.588-4.975 3.539-1.828 5.555-1.828c.797 0 1.635.141 2.514.422s1.682.738 2.408 1.371 1.33 1.471 1.811 2.514.721 2.326.721 3.85c0 1.383-.217 2.971-.65 4.764s-1.043 3.709-1.828 5.748-1.711 4.16-2.777 6.363-2.232 4.4-3.498 6.592-2.596 4.348-3.99 6.469-2.818 4.107-4.271 5.959l-.07.562c.469-.234.82-.387 1.055-.457s.48-.105.738-.105c.305 0 .551.029.738.088s.357.123.51.193.311.135.475.193.363.088.598.088c2.32 0 4.371-.275 6.152-.826s3.281-1.166 4.5-1.846c1.43-.773 2.672-1.676 3.727-2.707l-.773 8.543c-1.547.844-3.164 1.5-4.852 1.969s-3.246.82-4.676 1.055c-1.664.258-3.316.422-4.957.492.844 1.547 1.605 3.152 2.285 4.816.586 1.43 1.119 3.029 1.6 4.799s.721 3.557.721 5.361c0 .211-.029.655-.088 1.336-.059.68-.158 1.512-.299 2.496s-.34 2.074-.598 3.27-.592 2.402-1.002 3.621c-.41 1.218-.908 2.396-1.494 3.533s-1.271 2.145-2.057 3.023-1.688 1.587-2.707 2.127c-1.02.539-2.174.809-3.463.809s-2.414-.294-3.375-.879c-.961-.586-1.781-1.377-2.461-2.373-.68-.997-1.248-2.157-1.705-3.48-.457-1.324-.814-2.725-1.072-4.201s-.439-2.983-.545-4.518c-.109-1.536-.162-3.02-.162-4.448zm9.387-16.875c-.094 0-.199.264-.316.791s-.229 1.207-.334 2.039-.205 1.764-.299 2.795-.176 2.045-.246 3.041-.129 1.922-.176 2.777-.07 1.529-.07 2.021c0 3.445.064 6.188.193 8.227s.293 3.586.492 4.641.422 1.74.668 2.057.498.475.756.475c.797 0 1.436-.364 1.916-1.09.48-.727.844-1.647 1.09-2.76.246-1.113.41-2.333.492-3.656.082-1.324.123-2.597.123-3.814 0-.821-.064-1.828-.193-3.023s-.305-2.443-.527-3.744-.48-2.596-.773-3.885-.598-2.443-.914-3.463-.639-1.846-.967-2.479-.634-.95-.915-.95zm8.543-38.356c-1.359 3.375-2.426 6.346-3.199 8.912s-1.359 4.846-1.758 6.838-.68 3.744-.844 5.256-.328 2.912-.492 4.201c1.43-2.695 2.871-5.35 4.324-7.963s2.766-5.039 3.938-7.277 2.127-4.213 2.865-5.924 1.107-3.012 1.107-3.902c0-1.242-.176-2.15-.527-2.725s-.832-.861-1.441-.861c-1.078 0-1.898.287-2.461.861s-1.067 1.436-1.512 2.584z"/><path d="M323.861 68.836c0-.118.029-.832.088-2.145s.17-3.059.334-5.238.387-4.693.668-7.541.65-5.859 1.107-9.035.996-6.434 1.617-9.773 1.359-6.592 2.215-9.756 1.834-6.146 2.936-8.947 2.338-5.25 3.709-7.348 2.9-3.756 4.588-4.975 3.539-1.828 5.555-1.828c.797 0 1.635.141 2.514.422s1.682.738 2.408 1.371 1.33 1.471 1.811 2.514.721 2.326.721 3.85c0 1.383-.217 2.971-.65 4.764s-1.043 3.709-1.828 5.748-1.711 4.16-2.777 6.363-2.232 4.4-3.498 6.592-2.596 4.348-3.99 6.469-2.818 4.107-4.271 5.959l-.07.562c.469-.234.82-.387 1.055-.457s.48-.105.738-.105c.305 0 .551.029.738.088s.357.123.51.193.311.135.475.193.363.088.598.088c2.32 0 4.371-.275 6.152-.826s3.281-1.166 4.5-1.846c1.43-.773 2.672-1.676 3.727-2.707l-.773 8.543c-1.547.844-3.164 1.5-4.852 1.969s-3.246.82-4.676 1.055c-1.664.258-3.316.422-4.957.492.844 1.547 1.605 3.152 2.285 4.816.586 1.43 1.119 3.029 1.6 4.799s.721 3.557.721 5.361c0 .211-.029.655-.088 1.336-.059.68-.158 1.512-.299 2.496s-.34 2.074-.598 3.27-.592 2.402-1.002 3.621c-.41 1.218-.908 2.396-1.494 3.533s-1.271 2.145-2.057 3.023-1.688 1.587-2.707 2.127c-1.02.539-2.174.809-3.463.809s-2.414-.294-3.375-.879c-.961-.586-1.781-1.377-2.461-2.373-.68-.997-1.248-2.157-1.705-3.48-.457-1.324-.814-2.725-1.072-4.201s-.439-2.983-.545-4.518c-.109-1.536-.162-3.02-.162-4.448zm9.387-16.875c-.094 0-.199.264-.316.791s-.229 1.207-.334 2.039-.205 1.764-.299 2.795-.176 2.045-.246 3.041-.129 1.922-.176 2.777-.07 1.529-.07 2.021c0 3.445.064 6.188.193 8.227s.293 3.586.492 4.641.422 1.74.668 2.057.498.475.756.475c.797 0 1.436-.364 1.916-1.09.48-.727.844-1.647 1.09-2.76.246-1.113.41-2.333.492-3.656.082-1.324.123-2.597.123-3.814 0-.821-.064-1.828-.193-3.023s-.305-2.443-.527-3.744-.48-2.596-.773-3.885-.598-2.443-.914-3.463-.639-1.846-.967-2.479-.634-.95-.915-.95zm8.543-38.356c-1.359 3.375-2.426 6.346-3.199 8.912s-1.359 4.846-1.758 6.838-.68 3.744-.844 5.256-.328 2.912-.492 4.201c1.43-2.695 2.871-5.35 4.324-7.963s2.766-5.039 3.938-7.277 2.127-4.213 2.865-5.924 1.107-3.012 1.107-3.902c0-1.242-.176-2.15-.527-2.725s-.832-.861-1.441-.861c-1.078 0-1.898.287-2.461.861s-1.067 1.436-1.512 2.584z"/></g><path fill="#5A5A5A" d="M242.642 53.028c.521-.404.957-.829 1.482-1.31.527-.479 1.1-1.027 1.582-1.521 1.1-1.153 2.215-2.46 3.404-3.871l2.375 7.838c-1.43 1.545-2.859 2.949-4.289 4.209-.602.527-1.238 1.055-1.912 1.582-.672.527-1.34 1.008-2.004 1.439"/><path fill="#01AD4E" d="M32.386 2.728c-3.65 0-7.155.611-10.428 1.726l15.756 20.699h.254l-.127.167.127.167h-.254l-16.746 22H8.301L25.174 25.32 12.925 9.228C5.077 15.138 0 24.532 0 35.113 0 53 14.5 67.5 32.386 67.5c3.713 0 7.276-.633 10.597-1.783l-13.762-18.08h-.254l.127-.168-.127-.167h.254l16.746-22h12.667L41.761 47.469 51.98 60.896c7.772-5.916 12.792-15.262 12.792-25.782 0-17.886-14.5-32.386-32.386-32.386z"/></svg>