<svg version="1" xmlns="http://www.w3.org/2000/svg" width="340" height="340" viewBox="0 0 255.000000 255.000000"><path d="M66.8 7.5c-.2.3-2.2.7-4.3 1-8.3 1-23.7 7.6-31.4 13.3C13.1 35.2 1.5 57.2.5 79.4c-1.2 31 15.6 58.8 43.3 71.9l8.3 3.9-.6 3.9c-.4 2.1-.7 7.8-.7 12.6 0 21.6 10.1 43.1 27.1 57.6 6.7 5.7 21.1 13 30.1 15.4 7 1.8 24.2 2.3 32.1 1 23.7-3.9 46.7-22.5 56.4-45.6 4.8-11.4 6.6-26.2 5-39.3-.6-4.7-.5-5.8.7-5.8.8 0 5.2-1.8 9.7-4.1 25.8-12.7 41.8-37.4 42.5-65.4 1-38.1-24.6-69.9-61.8-77-7.7-1.5-22.8-1.3-29.8.4-11 2.6-27.2 10.3-30.8 14.7-3.1 3.6-4.6 3.5-9.4-.4C111.1 13.7 95.2 8 78.4 7.4c-6.1-.2-11.3-.1-11.6.1z"/></svg>